<svg id="cash-machine" xmlns="http://www.w3.org/2000/svg" width="78.25" height="78.25" viewBox="0 0 78.25 78.25">
  <g id="Grupo_1099034" data-name="Grupo 1099034" transform="translate(44.853 9.787)">
    <path id="Trazado_873183" data-name="Trazado 873183" d="M293.478,64.036h5.441v13.31h-5.441Z" transform="translate(-293.478 -64.036)" fill="#eceaec"/>
  </g>
  <g id="Grupo_1099037" data-name="Grupo 1099037" transform="translate(9.408 21.035)">
    <g id="Grupo_1099036" data-name="Grupo 1099036">
      <g id="Grupo_1099035" data-name="Grupo 1099035">
        <path id="Trazado_873184" data-name="Trazado 873184" d="M111.492,156.771l-26.384,4.213-22.227-4.214L61.56,140.786c0-1.739,1.825-3.149,3.564-3.149h3.235l6.107,9.023,6.107-9.023h27.769a3.149,3.149,0,0,1,3.149,3.149Z" transform="translate(-61.56 -137.637)" fill="#3a8cd6"/>
      </g>
    </g>
  </g>
  <g id="Grupo_1099040" data-name="Grupo 1099040" transform="translate(6.572 21.035)">
    <g id="Grupo_1099039" data-name="Grupo 1099039">
      <g id="Grupo_1099038" data-name="Grupo 1099038">
        <path id="Trazado_873185" data-name="Trazado 873185" d="M50.309,137.638H46.152A3.149,3.149,0,0,0,43,140.787v15.984l4.157.664V140.787A3.149,3.149,0,0,1,50.309,137.638Z" transform="translate(-43.003 -137.638)" fill="#0280ce"/>
      </g>
    </g>
  </g>
  <g id="Grupo_1099041" data-name="Grupo 1099041" transform="translate(11.39 5.788)">
    <path id="Trazado_873186" data-name="Trazado 873186" d="M74.527,37.874c2.661,0,1.558,2.157,1.558,4.818l3.26,4.8V66.486H91.559V42.692a4.818,4.818,0,0,0-4.818-4.818H74.527Z" transform="translate(-74.527 -37.874)" fill="#eceaec"/>
  </g>
  <g id="Grupo_1099042" data-name="Grupo 1099042" transform="translate(6.572 5.789)">
    <path id="Trazado_873187" data-name="Trazado 873187" d="M47.821,37.875A4.818,4.818,0,0,0,43,42.693v4.8h9.636v-4.8A4.818,4.818,0,0,0,47.821,37.875Z" transform="translate(-43.003 -37.875)" fill="#dad8db"/>
  </g>
  <g id="Grupo_1099045" data-name="Grupo 1099045" transform="translate(37.725 0)">
    <g id="Grupo_1099044" data-name="Grupo 1099044">
      <g id="Grupo_1099043" data-name="Grupo 1099043">
        <path id="Trazado_873188" data-name="Trazado 873188" d="M266.927,11.577H248.784a2.339,2.339,0,0,1-1.944-1.948l.037-6.749c0-.844,1.247-2.879,2.091-2.879h17.96a1.528,1.528,0,0,1,1.528,1.528v8.52A1.528,1.528,0,0,1,266.927,11.577Z" transform="translate(-246.84)" fill="#e5646e"/>
      </g>
    </g>
  </g>
  <g id="Grupo_1099046" data-name="Grupo 1099046" transform="translate(35.885 0)">
    <path id="Trazado_873189" data-name="Trazado 873189" d="M237.8,10V1.574A1.574,1.574,0,0,1,239.378,0h-3A1.574,1.574,0,0,0,234.8,1.574V10a1.574,1.574,0,0,0,1.574,1.574h3A1.574,1.574,0,0,1,237.8,10Z" transform="translate(-234.799 0)" fill="#db4655"/>
  </g>
  <g id="Grupo_1099048" data-name="Grupo 1099048" transform="translate(37.248 26.805)">
    <g id="Grupo_1099047" data-name="Grupo 1099047">
      <path id="Trazado_873190" data-name="Trazado 873190" d="M258.631,182.981h-12.49c-.844,0-2.421-.562-2.421-1.406l.073-4.218c0-.844,1.5-1.971,2.348-1.971h12.49a1.528,1.528,0,0,1,1.528,1.528v4.539A1.528,1.528,0,0,1,258.631,182.981Z" transform="translate(-243.72 -175.386)" fill="#eceaec"/>
    </g>
  </g>
  <g id="Grupo_1099049" data-name="Grupo 1099049" transform="translate(35.885 26.805)">
    <path id="Trazado_873191" data-name="Trazado 873191" d="M237.626,181.407v-4.446a1.575,1.575,0,0,1,1.574-1.574h-2.827a1.574,1.574,0,0,0-1.574,1.574v4.446a1.574,1.574,0,0,0,1.574,1.574H239.2A1.574,1.574,0,0,1,237.626,181.407Z" transform="translate(-234.799 -175.386)" fill="#dad8db"/>
  </g>
  <g id="Grupo_1099050" data-name="Grupo 1099050" transform="translate(19.413 14.224)">
    <path id="Trazado_873192" data-name="Trazado 873192" d="M131.188,95.434H128.2a1.181,1.181,0,1,1,0-2.362h2.985a1.181,1.181,0,1,1,0,2.362Z" transform="translate(-127.022 -93.072)" fill="#dad8db"/>
  </g>
  <g id="Grupo_1099051" data-name="Grupo 1099051" transform="translate(19.413 19.855)">
    <path id="Trazado_873193" data-name="Trazado 873193" d="M131.188,132.274H128.2a1.181,1.181,0,0,1,0-2.362h2.985a1.181,1.181,0,1,1,0,2.362Z" transform="translate(-127.022 -129.912)" fill="#dad8db"/>
  </g>
  <g id="Grupo_1099052" data-name="Grupo 1099052" transform="translate(19.413 25.485)">
    <path id="Trazado_873194" data-name="Trazado 873194" d="M131.188,169.114H128.2a1.181,1.181,0,0,1,0-2.362h2.985a1.181,1.181,0,0,1,0,2.362Z" transform="translate(-127.022 -166.752)" fill="#dad8db"/>
  </g>
  <g id="Grupo_1099053" data-name="Grupo 1099053" transform="translate(39.038 4.608)">
    <path id="Trazado_873195" data-name="Trazado 873195" d="M271.4,32.511H256.609a1.181,1.181,0,0,1,0-2.362H271.4a1.181,1.181,0,1,1,0,2.362Z" transform="translate(-255.428 -30.149)" fill="#eceaec"/>
  </g>
  <g id="Grupo_1099054" data-name="Grupo 1099054" transform="translate(12.576 33.219)">
    <path id="Trazado_873196" data-name="Trazado 873196" d="M100.583,219.719H83.466a1.181,1.181,0,1,1,0-2.362h17.117a1.181,1.181,0,0,1,0,2.362Z" transform="translate(-82.285 -217.357)" fill="#0280ce"/>
  </g>
  <g id="Grupo_1099055" data-name="Grupo 1099055" transform="translate(2.953 40.169)">
    <path id="Trazado_873197" data-name="Trazado 873197" d="M75.708,262.831H27.1L19.32,276.856l1.185,2.316,29.275,2.862,19.864-3.267,6.348-15.247Z" transform="translate(-19.32 -262.831)" fill="#80b4fb"/>
  </g>
  <g id="Grupo_1099058" data-name="Grupo 1099058" transform="translate(3.32 56.105)">
    <g id="Grupo_1099057" data-name="Grupo 1099057">
      <g id="Grupo_1099056" data-name="Grupo 1099056">
        <path id="Trazado_873198" data-name="Trazado 873198" d="M81.164,389.25H25.049A3.307,3.307,0,0,1,21.72,386.1l.818-19H68.873l5.776,8.909,9.664,6.094V386.1A3.149,3.149,0,0,1,81.164,389.25Z" transform="translate(-21.72 -367.105)" fill="#3a8cd6"/>
      </g>
    </g>
  </g>
  <g id="Grupo_1099061" data-name="Grupo 1099061" transform="translate(0 56.105)">
    <g id="Grupo_1099060" data-name="Grupo 1099060">
      <g id="Grupo_1099059" data-name="Grupo 1099059">
        <path id="Trazado_873199" data-name="Trazado 873199" d="M4.138,386.1v-19H0v19a3.149,3.149,0,0,0,3.149,3.149H7.287A3.149,3.149,0,0,1,4.138,386.1Z" transform="translate(0 -367.105)" fill="#0280ce"/>
      </g>
    </g>
  </g>
  <g id="Grupo_1099062" data-name="Grupo 1099062" transform="translate(0 40.169)">
    <path id="Trazado_873200" data-name="Trazado 873200" d="M6.572,262.83,0,278.767H4.157l6.572-15.937Z" transform="translate(0 -262.83)" fill="#61a2f9"/>
  </g>
  <g id="Grupo_1099063" data-name="Grupo 1099063" transform="translate(50.448 40.859)">
    <path id="Trazado_873201" data-name="Trazado 873201" d="M330.091,281.729q0,.433.024.86l2.892,2.738,1.476-.322,2.749-2.416,3.536-11.607-1.5-3.639A15.889,15.889,0,0,0,330.091,281.729Z" transform="translate(-330.091 -267.343)" fill="#61a2f9"/>
  </g>
  <g id="Grupo_1099066" data-name="Grupo 1099066" transform="translate(50.472 56.105)">
    <g id="Grupo_1099065" data-name="Grupo 1099065">
      <g id="Grupo_1099064" data-name="Grupo 1099064">
        <path id="Trazado_873202" data-name="Trazado 873202" d="M330.245,367.105a15.751,15.751,0,0,0,1.313,5.51H338.6a1.574,1.574,0,0,1,1.574,1.574v6.779a15.769,15.769,0,0,0,5.511,1.139v-15Z" transform="translate(-330.245 -367.105)" fill="#0280ce"/>
      </g>
    </g>
  </g>
  <g id="Grupo_1099067" data-name="Grupo 1099067" transform="translate(8.31 61.616)">
    <path id="Trazado_873203" data-name="Trazado 873203" d="M54.885,412.71l-.512-7.975c0-.87,1.293-1.574,2.162-1.574H97.848l4.308,4.381,4.308,3.973v1.2a1.574,1.574,0,0,1-1.574,1.575h-48.1C55.922,414.285,54.885,413.58,54.885,412.71Z" transform="translate(-54.373 -403.161)" fill="#eceaec"/>
  </g>
  <g id="Grupo_1099068" data-name="Grupo 1099068" transform="translate(51.785 61.616)">
    <path id="Trazado_873204" data-name="Trazado 873204" d="M347.453,411.515v-6.779a1.575,1.575,0,0,0-1.575-1.574h-7.043A15.961,15.961,0,0,0,347.453,411.515Z" transform="translate(-338.836 -403.161)" fill="#dad8db"/>
  </g>
  <g id="Grupo_1099069" data-name="Grupo 1099069" transform="translate(5.511 61.616)">
    <path id="Trazado_873205" data-name="Trazado 873205" d="M40.08,412.71v-7.975a1.575,1.575,0,0,1,1.574-1.574H37.63a1.574,1.574,0,0,0-1.574,1.574v7.975a1.574,1.574,0,0,0,1.574,1.575h4.024a1.574,1.574,0,0,1-1.574-1.575Z" transform="translate(-36.056 -403.161)" fill="#dad8db"/>
  </g>
  <g id="Grupo_1099070" data-name="Grupo 1099070" transform="translate(30.642 65.997)">
    <path id="Trazado_873206" data-name="Trazado 873206" d="M203.942,434.189h-2.267a1.181,1.181,0,1,1,0-2.361h2.267a1.181,1.181,0,1,1,0,2.361Z" transform="translate(-200.494 -431.827)" fill="#766e6e"/>
  </g>
  <g id="Grupo_1099071" data-name="Grupo 1099071" transform="translate(15.926 44.16)">
    <path id="Trazado_873207" data-name="Trazado 873207" d="M107.8,291.308h-2.409a1.181,1.181,0,1,1,0-2.362H107.8a1.181,1.181,0,1,1,0,2.362Z" transform="translate(-104.208 -288.946)" fill="#4591e5"/>
  </g>
  <g id="Grupo_1099072" data-name="Grupo 1099072" transform="translate(25.69 44.16)">
    <path id="Trazado_873208" data-name="Trazado 873208" d="M171.68,291.308h-2.409a1.181,1.181,0,1,1,0-2.362h2.409a1.181,1.181,0,1,1,0,2.362Z" transform="translate(-168.09 -288.946)" fill="#4591e5"/>
  </g>
  <g id="Grupo_1099073" data-name="Grupo 1099073" transform="translate(35.453 44.16)">
    <path id="Trazado_873209" data-name="Trazado 873209" d="M235.561,291.308h-2.409a1.181,1.181,0,0,1,0-2.362h2.409a1.181,1.181,0,1,1,0,2.362Z" transform="translate(-231.971 -288.946)" fill="#4591e5"/>
  </g>
  <g id="Grupo_1099074" data-name="Grupo 1099074" transform="translate(45.216 44.16)">
    <path id="Trazado_873210" data-name="Trazado 873210" d="M299.443,291.308h-2.409a1.181,1.181,0,1,1,0-2.362h2.409a1.181,1.181,0,1,1,0,2.362Z" transform="translate(-295.853 -288.946)" fill="#4591e5"/>
  </g>
  <g id="Grupo_1099075" data-name="Grupo 1099075" transform="translate(15.926 49.385)">
    <path id="Trazado_873211" data-name="Trazado 873211" d="M107.8,325.495h-2.409a1.181,1.181,0,0,1,0-2.362H107.8a1.181,1.181,0,0,1,0,2.362Z" transform="translate(-104.208 -323.133)" fill="#4591e5"/>
  </g>
  <g id="Grupo_1099076" data-name="Grupo 1099076" transform="translate(25.69 49.385)">
    <path id="Trazado_873212" data-name="Trazado 873212" d="M171.68,325.495h-2.409a1.181,1.181,0,0,1,0-2.362h2.409a1.181,1.181,0,0,1,0,2.362Z" transform="translate(-168.09 -323.133)" fill="#4591e5"/>
  </g>
  <g id="Grupo_1099077" data-name="Grupo 1099077" transform="translate(35.453 49.385)">
    <path id="Trazado_873213" data-name="Trazado 873213" d="M235.561,325.495h-2.409a1.181,1.181,0,0,1,0-2.362h2.409a1.181,1.181,0,0,1,0,2.362Z" transform="translate(-231.971 -323.133)" fill="#4591e5"/>
  </g>
  <g id="Grupo_1099078" data-name="Grupo 1099078" transform="translate(45.216 49.385)">
    <path id="Trazado_873214" data-name="Trazado 873214" d="M299.443,325.495h-2.409a1.181,1.181,0,0,1,0-2.362h2.409a1.181,1.181,0,0,1,0,2.362Z" transform="translate(-295.853 -323.133)" fill="#4591e5"/>
  </g>
  <g id="Grupo_1099079" data-name="Grupo 1099079" transform="translate(55.753 43.394)">
    <path id="Trazado_873215" data-name="Trazado 873215" d="M387.3,295.783a11.935,11.935,0,0,1-10.432,11.839,12.578,12.578,0,0,1-1.5-.121c-6.59,0-10.564-5.128-10.564-11.718s3.974-11.761,10.564-11.761a12.389,12.389,0,0,1,1.547-.072A11.935,11.935,0,0,1,387.3,295.783Z" transform="translate(-364.8 -283.932)" fill="#ffc269"/>
  </g>
  <g id="Grupo_1099080" data-name="Grupo 1099080" transform="translate(54.385 43.312)">
    <path id="Trazado_873216" data-name="Trazado 873216" d="M359.02,295.331a11.933,11.933,0,0,1,10.346-11.824,11.933,11.933,0,1,0,0,23.649A11.932,11.932,0,0,1,359.02,295.331Z" transform="translate(-355.846 -283.398)" fill="#ffa95f"/>
  </g>
  <path id="Trazado_873217" data-name="Trazado 873217" d="M412.354,310.24c-.029,0-.059,0-.087,0a1.53,1.53,0,1,1,1.617-1.527,1.181,1.181,0,1,0,2.362,0,3.9,3.9,0,0,0-2.71-3.708v-1.433a1.181,1.181,0,0,0-2.362,0v1.433a3.891,3.891,0,0,0,1.181,7.6q.044,0,.087,0a1.53,1.53,0,1,1-1.617,1.527,1.181,1.181,0,1,0-2.362,0,3.9,3.9,0,0,0,2.71,3.708v1.434a1.181,1.181,0,0,0,2.362,0v-1.434a3.891,3.891,0,0,0-1.181-7.6Z" transform="translate(-346.037 -256.178)" fill="#eceaec"/>
</svg>
