<svg id="pay" xmlns="http://www.w3.org/2000/svg" width="96.363" height="93.151" viewBox="0 0 96.363 93.151">
  <path id="Trazado_873250" data-name="Trazado 873250" d="M448,112h9.636v35.333H448Z" transform="translate(-361.274 -94.334)" fill="#2a70ab"/>
  <path id="Trazado_873251" data-name="Trazado 873251" d="M416,120h6.424v28.909H416Z" transform="translate(-335.698 -100.727)" fill="#4db7e5"/>
  <path id="Trazado_873252" data-name="Trazado 873252" d="M300.909,124.818h-6.424L283.242,120H272v28.909h17.667l4.818-4.818h6.424Z" transform="translate(-220.607 -100.727)" fill="#ff9f9b"/>
  <path id="Trazado_873253" data-name="Trazado 873253" d="M91.335,24,56,42.844l28.909,53L120.243,77Z" transform="translate(-47.971 -24)" fill="#448703"/>
  <path id="Trazado_873254" data-name="Trazado 873254" d="M133.562,209.6l-11.235,6-6.087-11.146,11.244-6Z" transform="translate(-96.116 -163.434)" fill="#f98500"/>
  <path id="Trazado_873255" data-name="Trazado 873255" d="M136.091,24,112,36.848l28.909,53L165,77Z" transform="translate(-92.727 -24)" fill="#95cb37"/>
  <g id="Grupo_1099082" data-name="Grupo 1099082" transform="translate(19.273 0)">
    <path id="Trazado_873256" data-name="Trazado 873256" d="M123.339,57.92a12.837,12.837,0,0,1-5.187,17.313L112,63.959Z" transform="translate(-112 -51.11)" fill="#6dbb24"/>
    <path id="Trazado_873257" data-name="Trazado 873257" d="M186.859,36.848a12.8,12.8,0,0,1-11.339-6.81L186.859,24l6.151,11.274a12.775,12.775,0,0,1-6.151,1.574Z" transform="translate(-162.768 -24)" fill="#6dbb24"/>
    <path id="Trazado_873258" data-name="Trazado 873258" d="M242.85,294.81l-11.339,6.039-6.151-11.274a12.834,12.834,0,0,1,17.49,5.236Z" transform="translate(-202.602 -235)" fill="#6dbb24"/>
    <path id="Trazado_873259" data-name="Trazado 873259" d="M324.839,243.114,313.5,249.153a12.837,12.837,0,0,1,5.188-17.313Z" transform="translate(-271.839 -190.115)" fill="#6dbb24"/>
  </g>
  <path id="Trazado_873260" data-name="Trazado 873260" d="M202.409,145.61l-24.082,12.857-6.078-11.143,24.089-12.844Z" transform="translate(-140.881 -112.301)" fill="#fca713"/>
  <path id="Trazado_873261" data-name="Trazado 873261" d="M266.7,132.848a4.543,4.543,0,0,0,6.424,6.424l6.424-6.424a9.085,9.085,0,0,0,12.848,0l3.212-3.212v-4.818h-6.424L277.945,120h-8.76l3.642,6.724Z" transform="translate(-215.31 -100.727)" fill="#ffdad2"/>
  <path id="Trazado_873262" data-name="Trazado 873262" d="M16,344h6.424v28.909H16Z" transform="translate(-16 -279.758)" fill="#2a70ab"/>
  <path id="Trazado_873263" data-name="Trazado 873263" d="M48,360h6.424v22.485H48Z" transform="translate(-41.576 -292.546)" fill="#4db7e5"/>
  <path id="Trazado_873264" data-name="Trazado 873264" d="M99.272,368.109l1.606,1.606h9.636a4.818,4.818,0,1,1,0,9.636h25.7a4.818,4.818,0,1,1,0,9.636H101.217A38.251,38.251,0,0,1,80,382.563V368.109a13.628,13.628,0,0,1,19.273,0Z" transform="translate(-67.151 -295.837)" fill="#ffdad2"/>
  <path id="Trazado_873265" data-name="Trazado 873265" d="M160,441.606a1.606,1.606,0,0,0,1.606,1.606h12.848a1.606,1.606,0,0,0,0-3.212H161.606A1.606,1.606,0,0,0,160,441.606Z" transform="translate(-131.091 -356.486)" fill="#ff9f9b"/>
</svg>
